<svg width="64" height="64" viewBox="0 0 64 64" fill="none" xmlns="http://www.w3.org/2000/svg">
  <path fill-rule="evenodd" clip-rule="evenodd" d="M4 13C4 11.8954 4.89543 11 6 11H18C19.1046 11 20 11.8954 20 13V15L26.3108 11.8446C27.4217 11.2892 28.6466 11 29.8885 11H36C38.2091 11 40 12.7909 40 15L46.3108 11.8446C47.4217 11.2892 48.6466 11 49.8885 11H54C57.3137 11 60 13.6863 60 17V51C60 52.1046 59.1046 53 58 53H46C44.8954 53 44 52.1046 44 51V20.2361C44 18.7493 42.4354 17.7823 41.1056 18.4472L40 19V47C40 48.1046 39.1046 49 38 49H26C24.8954 49 24 48.1046 24 47V20.2361C24 18.7493 22.4354 17.7823 21.1056 18.4472L20 19V47C20 48.1046 19.1046 49 18 49H6C4.89543 49 4 48.1046 4 47V13Z" fill="#E83581"/>
</svg>