<svg width="64" height="64" viewBox="0 0 64 64" fill="none" xmlns="http://www.w3.org/2000/svg">
  <path fill-rule="evenodd" clip-rule="evenodd" d="M4 19C4 14.5817 7.58172 11 12 11V11C16.4183 11 20 14.5817 20 19V19L25.6569 13.3431C27.1571 11.8429 29.192 11 31.3137 11H32C36.4183 11 40 14.5817 40 19V19L45.6569 13.3431C47.1571 11.8429 49.192 11 51.3137 11H52C56.4183 11 60 14.5817 60 19V45C60 49.4183 56.4183 53 52 53V53C47.5817 53 44 49.4183 44 45V23.8284C44 22.0466 41.8457 21.1543 40.5858 22.4142V22.4142C40.2107 22.7893 40 23.298 40 23.8284V41C40 45.4183 36.4183 49 32 49V49C27.5817 49 24 45.4183 24 41V23.8284C24 22.0466 21.8457 21.1543 20.5858 22.4142V22.4142C20.2107 22.7893 20 23.298 20 23.8284V41C20 45.4183 16.4183 49 12 49V49C7.58172 49 4 45.4183 4 41V19Z" fill="#e11d48"/>
</svg>