<svg width="296" height="48" viewBox="0 0 296 48" fill="none" xmlns="http://www.w3.org/2000/svg">
  <path d="M200 22C200 20.8954 200.895 20 202 20H214C215.105 20 216 20.8954 216 22V42C216 43.1046 215.105 44 214 44H202C200.895 44 200 43.1046 200 42V22Z" fill="#353535"/>
  <path d="M200 2C200 0.895431 200.895 0 202 0H214C215.105 0 216 0.895431 216 2V14C216 15.1046 215.105 16 214 16H202C200.895 16 200 15.1046 200 14V2Z" fill="#353535"/>
  <path fill-rule="evenodd" clip-rule="evenodd" d="M280 2C280 0.895431 280.895 0 282 0H294C295.105 0 296 0.895431 296 2V42C296 43.1046 295.105 44 294 44H282H280H276H273H266C262.686 44 260 41.3137 260 38V18C260 14.6863 262.686 12 266 12H274C275.105 12 276 12.8954 276 14V38C276 39.1046 276.895 40 278 40H280V2Z" fill="#353535"/>
  <path fill-rule="evenodd" clip-rule="evenodd" d="M220 14C220 12.8954 220.895 12 222 12H234C235.105 12 236 12.8954 236 14V16L242.311 12.8446C243.422 12.2892 244.647 12 245.889 12H250C253.314 12 256 14.6863 256 18V46C256 47.1046 255.105 48 254 48H242C240.895 48 240 47.1046 240 46V21.2361C240 19.7493 238.435 18.7823 237.106 19.4472L236 20V42C236 43.1046 235.105 44 234 44H222C220.895 44 220 43.1046 220 42V14Z" fill="#353535"/>
  <path fill-rule="evenodd" clip-rule="evenodd" d="M140 14C140 12.8954 140.895 12 142 12H154C155.105 12 156 12.8954 156 14V16L162.311 12.8446C163.422 12.2892 164.647 12 165.889 12H172C174.209 12 176 13.7909 176 16L182.311 12.8446C183.422 12.2892 184.647 12 185.889 12H190C193.314 12 196 14.6863 196 18V46C196 47.1046 195.105 48 194 48H182C180.895 48 180 47.1046 180 46V21.2361C180 19.7493 178.435 18.7823 177.106 19.4472L176 20V42C176 43.1046 175.105 44 174 44H162C160.895 44 160 43.1046 160 42V21.2361C160 19.7493 158.435 18.7823 157.106 19.4472L156 20V42C156 43.1046 155.105 44 154 44H142C140.895 44 140 43.1046 140 42V14Z" fill="#353535"/>
  <path d="M120 22C120 20.8954 120.895 20 122 20H134C135.105 20 136 20.8954 136 22V42C136 43.1046 135.105 44 134 44H122C120.895 44 120 43.1046 120 42V22Z" fill="#353535"/>
  <path d="M120 2C120 0.895431 120.895 0 122 0H134C135.105 0 136 0.895431 136 2V14C136 15.1046 135.105 16 134 16H122C120.895 16 120 15.1046 120 14V2Z" fill="#353535"/>
  <path d="M60 22C60 20.8954 60.8954 20 62 20H74C75.1046 20 76 20.8954 76 22V42C76 43.1046 75.1046 44 74 44H62C60.8954 44 60 43.1046 60 42V22Z" fill="#353535"/>
  <path d="M60 2C60 0.895431 60.8954 0 62 0H74C75.1046 0 76 0.895431 76 2V14C76 15.1046 75.1046 16 74 16H62C60.8954 16 60 15.1046 60 14V2Z" fill="#353535"/>
  <path fill-rule="evenodd" clip-rule="evenodd" d="M80 14C80 12.8954 80.8954 12 82 12H94C95.1046 12 96 12.8954 96 14V16L102.311 12.8446C103.422 12.2892 104.647 12 105.889 12H110C113.314 12 116 14.6863 116 18V46C116 47.1046 115.105 48 114 48H102C100.895 48 100 47.1046 100 46V21.2361C100 19.7493 98.4354 18.7823 97.1056 19.4472L96 20V42C96 43.1046 95.1046 44 94 44H82C80.8954 44 80 43.1046 80 42V14Z" fill="#353535"/>
  <path fill-rule="evenodd" clip-rule="evenodd" d="M0 8C0 6.89543 0.895431 6 2 6H14C15.1046 6 16 6.89543 16 8V10L22.3108 6.84458C23.4217 6.28916 24.6466 6 25.8885 6H32C34.2091 6 36 7.79086 36 10L42.3108 6.84458C43.4217 6.28916 44.6466 6 45.8885 6H50C53.3137 6 56 8.68629 56 12V46C56 47.1046 55.1046 48 54 48H42C40.8954 48 40 47.1046 40 46V15.2361C40 13.7493 38.4354 12.7823 37.1056 13.4472L36 14V42C36 43.1046 35.1046 44 34 44H22C20.8954 44 20 43.1046 20 42V15.2361C20 13.7493 18.4354 12.7823 17.1056 13.4472L16 14V42C16 43.1046 15.1046 44 14 44H2C0.895431 44 0 43.1046 0 42V8Z" fill="#353535"/>
</svg>
