<svg width="296" height="48" viewBox="0 0 296 48" fill="none" xmlns="http://www.w3.org/2000/svg">
  <style>
    path {
      fill: #000000;
    }
  </style>
  <path d="M200 28C200 23.5817 203.582 20 208 20C212.418 20 216 23.5817 216 28V32C216 36.4183 212.418 40 208 40C203.582 40 200 36.4183 200 32V28Z" />
  <path d="M200 8C200 3.58172 203.582 0 208 0C212.418 0 216 3.58172 216 8C216 12.4183 212.418 16 208 16C203.582 16 200 12.4183 200 8Z" />
  <path fill-rule="evenodd" clip-rule="evenodd" d="M280 12C280 7.58172 283.582 4 288 4C292.418 4 296 7.58172 296 12V32C296 36.4183 292.418 40 288 40H268C263.582 40 260 36.4183 260 32V24C260 19.5817 263.582 16 268 16C272.418 16 276 19.5817 276 24V34C276 35.1046 276.895 36 278 36C279.105 36 280 35.1046 280 34V12Z" />
  <path fill-rule="evenodd" clip-rule="evenodd" d="M220 20C220 15.5817 223.582 12 228 12C232.418 12 236 15.5817 236 20L241.657 14.3431C243.157 12.8429 245.192 12 247.314 12H248C252.418 12 256 15.5817 256 20V40C256 44.4183 252.418 48 248 48C243.582 48 240 44.4183 240 40V25.4242C240 23.4225 237.58 22.4201 236.165 23.8355C236.059 23.9408 236 24.0837 236 24.2327V36C236 40.4183 232.418 44 228 44C223.582 44 220 40.4183 220 36V20Z" />
  <path fill-rule="evenodd" clip-rule="evenodd" d="M140 20C140 15.5817 143.582 12 148 12C152.418 12 156 15.5817 156 20L161.657 14.3431C163.157 12.8429 165.192 12 167.314 12H168C172.418 12 176 15.5817 176 20L181.657 14.3431C183.157 12.8429 185.192 12 187.314 12H188C192.418 12 196 15.5817 196 20V40C196 44.4183 192.418 48 188 48C183.582 48 180 44.4183 180 40V25.4242C180 23.4225 177.58 22.4201 176.165 23.8355C176.059 23.9408 176 24.0837 176 24.2327V36C176 40.4183 172.418 44 168 44H167.029C163.147 44 160 40.8528 160 36.9706V25.4242C160 23.4225 157.58 22.4201 156.165 23.8355C156.059 23.9408 156 24.0837 156 24.2327V32C156 36.4183 152.418 40 148 40C143.582 40 140 36.4183 140 32V20Z" />
  <path d="M120 28C120 23.5817 123.582 20 128 20C132.418 20 136 23.5817 136 28V32C136 36.4183 132.418 40 128 40C123.582 40 120 36.4183 120 32V28Z" />
  <path d="M120 8C120 3.58172 123.582 0 128 0C132.418 0 136 3.58172 136 8C136 12.4183 132.418 16 128 16C123.582 16 120 12.4183 120 8Z" />
  <path d="M60 28C60 23.5817 63.5817 20 68 20C72.4183 20 76 23.5817 76 28V32C76 36.4183 72.4183 40 68 40C63.5817 40 60 36.4183 60 32V28Z" />
  <path d="M60 8C60 3.58172 63.5817 0 68 0C72.4183 0 76 3.58172 76 8C76 12.4183 72.4183 16 68 16C63.5817 16 60 12.4183 60 8Z" />
  <path fill-rule="evenodd" clip-rule="evenodd" d="M80 20C80 15.5817 83.5817 12 88 12C92.4183 12 96 15.5817 96 20L101.657 14.3431C103.157 12.8429 105.192 12 107.314 12H108C112.418 12 116 15.5817 116 20V40C116 44.4183 112.418 48 108 48C103.582 48 100 44.4183 100 40V25.4242C100 23.4225 97.5799 22.4201 96.1645 23.8355C96.0592 23.9408 96 24.0837 96 24.2327V36C96 40.4183 92.4183 44 88 44C83.5817 44 80 40.4183 80 36V20Z" />
  <path fill-rule="evenodd" clip-rule="evenodd" d="M0 20C0 15.5817 3.58172 12 8 12C12.4183 12 16 15.5817 16 20L21.6569 14.3431C23.1571 12.8429 25.192 12 27.3137 12H28C32.4183 12 36 15.5817 36 20L41.6569 14.3431C43.1571 12.8429 45.192 12 47.3137 12H48C52.4183 12 56 15.5817 56 20V40C56 44.4183 52.4183 48 48 48C43.5817 48 40 44.4183 40 40V25.4242C40 23.4225 37.5799 22.4201 36.1645 23.8355C36.0592 23.9408 36 24.0837 36 24.2327V36C36 40.4183 32.4183 44 28 44C23.5817 44 20 40.4183 20 36V25.4242C20 23.4225 17.5799 22.4201 16.1645 23.8355C16.0592 23.9408 16 24.0837 16 24.2327V32C16 36.4183 12.4183 40 8 40C3.58172 40 0 36.4183 0 32V20Z" />
</svg>
